<?xml version="1.0" standalone="no"?>
<!DOCTYPE svg PUBLIC "-//W3C//DTD SVG 1.1//EN"
  "http://www.w3.org/Graphics/SVG/1.1/DTD/svg11.dtd">
<svg version="1.1" xmlns="http://www.w3.org/2000/svg" xmlns:xlink="http://www.w3.org/1999/xlink" width="1280" height="720" viewBox="-1040.8888888888887 -32 1889.7777777777776 1063" id="ccdiagram"><filter id="grayscale"><feColorMatrix type="matrix" values="0.3333 0.3333 0.3333 0 0 0.3333 0.3333 0.3333 0 0 0.3333 0.3333 0.3333 0 0 0 0 0 1 0"></feColorMatrix></filter><defs><style type="text/css">@import url('https://fonts.googleapis.com/css?family=Open+Sans:400,700|Inconsolata:400');</style></defs><g><g pointer-events="auto"><g opacity="1"><g><g><polygon points="336 305, 592 453, 592 490, 16 823, -48 823, -304 675, -304 638, 272 305" fill="#ffffff" stroke-width="2" stroke="#818181"></polygon><polygon points="304 324, 560 472, -16 805, -272 657" fill="#e6e7e8" stroke-width="0" stroke="#818181"></polygon></g></g></g><g opacity="1"><g><g><polygon points="-16 102, 240 250, 240 287, -336 620, -400 620, -656 472, -656 435, -80 102" fill="#ffffff" stroke-width="2" stroke="#818181"></polygon><polygon points="-48 120, 208 268, -368 601, -624 453" fill="#e6e7e8" stroke-width="0" stroke="#818181"></polygon></g></g></g><g opacity="1"><g id="aa2fd81d-dfd0-45de-b442-349dfb45d4c6"><svg x="-32" y="204" overflow="visible"><g fill="#e8e8e8"><polygon points="0 0, 128 74, -160 241, -288 167" stroke="#e8e8e8" stroke-width="40"></polygon></g></svg></g></g><g opacity="1"><g id="68ccac0c-a47c-4b12-9edc-d8d017e83a19"><svg x="288" y="389" overflow="visible"><g fill="#e8e8e8"><polygon points="0 0, 144 83, -144 250, -288 167" stroke="#e8e8e8" stroke-width="40"></polygon></g></svg></g></g><g opacity="1"><g><g><polygon points="-352 315, 224 648, 224 685, 32 796, -32 796, -608 463, -608 426, -416 315" fill="#ffffff" stroke-width="2" stroke="#818181"></polygon><polygon points="-384 333, 192 666, 0 777, -576 444" fill="#e6e7e8" stroke-width="0" stroke="#818181"></polygon></g></g></g><g opacity="1"><g><g><polygon points="-128 185, 448 518, 448 555, 304 638, 240 638, -336 305, -336 268, -192 185" fill="#ffffff" stroke-width="2" stroke="#818181"></polygon><polygon points="-160 204, 416 537, 272 620, -304 287" fill="#e6e7e8" stroke-width="0" stroke="#818181"></polygon></g></g></g></g><g pointer-events="auto"></g><g pointer-events="auto"></g><g></g><g pointer-events="auto"></g><g></g><g pointer-events="auto"></g><g pointer-events="auto"></g><g pointer-events="none"></g><g pointer-events="auto"><g id="2160e0b2-fc9d-4086-a6e5-38dc6b5b4c00-b2f88a01-c197-474f-bf38-3667a5c2cdc6"><g cursor="cell"><line x1="-448" y1="703" x2="-320" y2="629" stroke="red" stroke-width="8" opacity="0"></line><line x1="-448" y1="703" x2="-320" y2="629" stroke="#000000" stroke-width="2" stroke-linecap="round"></line></g></g><g id="37884af6-5fc2-4e0f-ac43-f61df2f840dc-4f0b7558-1121-4920-b6cb-8da18e62f6bd"><g cursor="cell"><line x1="-143" y1="527" x2="22" y2="431" stroke="red" stroke-width="8" opacity="0"></line><line x1="-143" y1="527" x2="22" y2="431" stroke="#000000" stroke-width="2" stroke-linecap="round"></line><polygon points="32 426, 6 431, 20 433, 23 440, 32 426" stroke-linejoin="round" fill="#000000" stroke="#000000" stroke-width="1"></polygon></g></g></g><g pointer-events="auto"><g opacity="1"><g id="4f0b7558-1121-4920-b6cb-8da18e62f6bd" transform="translate(0 0)"><svg x="0" y="306" height="137.556" width="128" viewBox="0 0 33.867 36.395"><g fill="#4286c5" font-family="sans-serif" font-size="3.175" stroke-width=".265" style="line-height: 0%;"><path d="M.187 12.17v14.365l16.586 9.577V21.747l-4.146-7.183-8.293-4.787z" fill="#d2d2d4" stroke-width=".264"></path><path d="M20.955 14.564l8.292-4.787 4.147 2.394v14.364l-16.587 9.576V21.748z" fill="#b8b8bb" stroke-width=".264"></path><path d="M4.334 9.777l8.292 4.788h8.293l8.293-4.788V4.988L20.919.2h-8.293L4.334 4.988zM12.856 14.565h8.294l-4.147 7.182z" fill="#ececed" stroke-width=".264"></path><path d="M4.394 4.806v4.789L.247 11.988zM29.212 9.595v-4.79l4.146 7.183z" fill="#d2d2d4" stroke-width=".264"></path><path d="M208.47 90.288l4.345-4.346 4.346 8.693z" fill="none" stroke="#83838a" stroke-width=".264" transform="scale(1.34943 .77909) rotate(45 195.366 -185.783)"></path><path d="M199.734 94.678l13.037 13.037h17.383L217.117 94.68l-8.692-4.347h-8.69zM212.819 85.928v-8.69h4.345l13.037 13.037.001 17.382-13.037-13.037zM199.734 90.333h8.69l4.347-4.346v-8.69l-4.347-4.347h-8.69l-4.346 4.346v8.69z" fill="none" stroke="#83838a" stroke-width=".257" transform="scale(1.34943 .77909) rotate(45 195.366 -185.783)"></path><path d="M212.855 107.631l-13.037-13.037-4.346-8.692v-8.69l4.346-4.347h8.69l8.692 4.346 13.038 13.038v17.383z" fill="none" stroke="#000000" stroke-width=".514" transform="scale(1.34943 .77909) rotate(45 195.366 -185.783)"></path><g style="line-height: 0%;"><path d="M15.745 6.453l.69.399q.967.558 1.826.616.865.055 1.596-.367.737-.425.683-.862-.048-.434-.907-.93l-.953-.55zm6.303 1.828q-1.596.921-3.443.831-1.839-.086-3.678-1.148l-.9-.519-3.517 2.03-2.096-1.21 9.887-5.708L21.46 4.38q1.8 1.039 1.955 2.026.169.988-1.366 1.875z" font-family="Open Sans" font-size="14.515" stroke-width=".258" style="line-height: 1.25;"></path></g></g></svg></g></g><g opacity="1"><g id="37884af6-5fc2-4e0f-ac43-f61df2f840dc" transform="translate(0 0)"><svg x="-245" y="505" height="80.616" width="106.128" viewBox="0 0 28.08 21.33"><path d="M.265 10.053v4.894l10.596 6.118v-4.894z" fill="#232323" stroke="#a2a2a2" stroke-width=".265"></path><path d="M10.861 16.17h6.358v4.895H10.86z" fill="#232323" stroke="#a2a2a2" stroke-width=".265"></path><path d="m17.219 21.065 10.596-6.118v-4.894L17.22 16.171z" fill="#090909" stroke="#a2a2a2" stroke-width=".265"></path><path d="M27.815 10.053v-3.67L17.22.264H10.86L.265 6.382v3.671l10.596 6.118h6.358z" fill="#3c3c3c" stroke="#a2a2a2" stroke-width=".265"></path><path d="m.265 14.947 10.596 6.118h6.358l10.596-6.118V6.382L17.22.265H10.86L.265 6.382z" fill="none" stroke="#000000" stroke-width=".529"></path><g fill="#ff9800"><path class="cls-1" d="m11.21 2.618.667.384-6.87 3.967-.667-.385zM13.082 3.698l.666.385-6.87 3.966-.666-.384zM21.202 8.386l.666.385-6.87 3.966-.667-.384zM23.074 9.467l.666.384-6.87 3.967-.667-.385zM13.479 10.8l-3.91-2.258a.796.46 0 0 1 0-.65l3.91-2.258a.796.46 0 0 1 1.125 0l3.91 2.258a.796.46 0 0 1 0 .65l-3.91 2.257a.796.46 0 0 1-1.125 0zm-3.14-2.583 3.703 2.138 3.703-2.138-3.703-2.138z"></path><path class="cls-1" d="m14.957 5.142.667.385-.936.54-.666-.384zM16.206 5.863l.666.385-.935.54-.667-.384zM17.455 6.584l.666.385-.936.54-.666-.384zM18.704 7.305l.666.385-.936.54-.666-.384zM9.652 8.205l.666.385-.936.54-.666-.384zM10.901 8.926l.666.385-.936.54-.666-.384zM12.15 9.647l.666.385-.936.54-.666-.384zM13.399 10.368l.666.385-.936.54-.666-.384z"></path><path class="cls-1" d="m13.126 5.142.936.54-.666.385-.936-.54zM11.877 5.863l.936.54-.666.385-.936-.54zM10.628 6.584l.936.54-.666.385-.936-.54zM9.379 7.305l.936.54-.666.385-.936-.54zM18.431 8.205l.936.54-.666.385-.936-.54zM17.182 8.926l.936.54-.666.385-.936-.54zM15.933 9.647l.936.54-.666.385-.936-.54zM14.684 10.368l.936.54-.666.385-.936-.54z"></path></g></svg></g></g><g opacity="1"><g id="2160e0b2-fc9d-4086-a6e5-38dc6b5b4c00" transform="translate(0 0)"><svg x="-558" y="659" height="108.05" width="123" viewBox="0 0 32.544 28.588"><path d="M10.115 6.02v14.218l7.873-4.318V1.474z" fill="#b8b8bb" fill-rule="evenodd" stroke="#83838a" stroke-width=".268"></path><path d="M.265 2.228l9.85 3.791v14.219l-9.85-8.531z" fill="#d2d2d4" fill-rule="evenodd" stroke="#83838a" stroke-width=".265"></path><path d="M10.115 6.02l7.873-4.546L3.548.332.265 2.228z" fill="#ececed" fill-rule="evenodd" stroke="#83838a" stroke-width=".265"></path><path d="M.265 11.707l9.85 8.53 7.873-4.317V1.474L3.392.271.265 2.076z" fill="none" fill-rule="evenodd" stroke="#000000" stroke-width=".529"></path><path d="M22.429 3.65L14.22 8.39l14.828 10.397 3.231-1.866z" fill="#ececed" fill-rule="evenodd" stroke="#83838a" stroke-width=".268"></path><path d="M14.22 8.39V22.61l14.777 5.687.051-9.509z" fill="#d2d2d4" fill-rule="evenodd" stroke="#83838a" stroke-width=".265"></path><path d="M29.048 18.787l3.231-1.866V26.4l-3.282 1.897z" fill="#b8b8bb" fill-rule="evenodd" stroke="#83838a" stroke-width=".265"></path><path d="M22.429 3.65L14.22 8.39V22.61l14.777 5.687 3.282-1.897v-9.478z" fill="none" fill-rule="evenodd" stroke="#000000" stroke-width=".529"></path><path d="M25.604 20.872c-.071-.975-.928-2.116-1.982-2.599a2.547 2.547 0 0 0-.398-.144c-.566-.91-1.446-1.74-2.441-2.195-1.501-.687-2.76-.293-3.057.872-1.062-.091-1.77.532-1.77 1.597 0 1.436 1.27 3.181 2.84 3.899l5.961 2.73c1.41.645 2.555.121 2.555-1.17 0-1.004-.695-2.2-1.708-2.99zm-.847 3.38l-5.962-2.73c-1.098-.502-1.987-1.723-1.987-2.729 0-.916.74-1.336 1.704-1.022v-.018c0-1.148 1.016-1.613 2.27-1.04.95.435 1.763 1.34 2.102 2.252.198-.065.456-.041.738.088.626.287 1.135.986 1.135 1.56a.657.657 0 0 1-.156.454c.052.019.105.042.156.065.94.43 1.704 1.479 1.704 2.34 0 .86-.763 1.21-1.704.78z" fill="#4286c5" stroke-width=".017"></path></svg></g></g></g><g pointer-events="auto"></g><g pointer-events="auto"></g><g pointer-events="auto"><g opacity="1"><g id="e1561158-1470-4c78-8871-b4a213dc1138" transform="translate(0 0)"><svg x="128" y="111" overflow="visible"><text stroke="#ffffff" stroke-width="4" font-family="Open Sans" y="49.04" font-size="36pt" fill="#8ed1fc" font-weight="bold" transform="matrix(0.707 0.409 -0.707 0.409 0 0)" xml:space="preserve"><tspan x="8" dy="0">Zone A</tspan></text><text font-family="Open Sans" y="49.04" font-size="36pt" fill="#8ed1fc" font-weight="bold" transform="matrix(0.707 0.409 -0.707 0.409 0 0)" xml:space="preserve"><tspan x="8" dy="0">Zone A</tspan></text></svg></g></g><g opacity="1"><g id="572cc850-5c0d-42ec-b547-361d14b0426b" transform="translate(0 0)"><svg x="464" y="305" overflow="visible"><text stroke="#ffffff" stroke-width="4" font-family="Open Sans" y="49.04" font-size="36pt" fill="#8ed1fc" font-weight="bold" transform="matrix(0.707 0.409 -0.707 0.409 0 0)" xml:space="preserve"><tspan x="8" dy="0">Zone B</tspan></text><text font-family="Open Sans" y="49.04" font-size="36pt" fill="#8ed1fc" font-weight="bold" transform="matrix(0.707 0.409 -0.707 0.409 0 0)" xml:space="preserve"><tspan x="8" dy="0">Zone B</tspan></text></svg></g></g><g opacity="1"><g id="17f24b20-6ea1-4a6d-beef-3985378a3534" transform="translate(0 0)"><svg x="32" y="148" overflow="visible"><text stroke="#ffffff" stroke-width="4" font-family="Open Sans" y="49.04" font-size="36pt" fill="#607d8b" font-weight="bold" transform="matrix(0.707 0.409 -0.707 0.409 0 0)" xml:space="preserve"><tspan x="8" dy="0">Subnet A</tspan></text><text font-family="Open Sans" y="49.04" font-size="36pt" fill="#607d8b" font-weight="bold" transform="matrix(0.707 0.409 -0.707 0.409 0 0)" xml:space="preserve"><tspan x="8" dy="0">Subnet A</tspan></text></svg></g></g><g opacity="1"><g id="c85c1fe1-2b58-45b4-8b8f-494fccc69506" transform="translate(0 0)"><svg x="368" y="342" overflow="visible"><text stroke="#ffffff" stroke-width="4" font-family="Open Sans" y="49.04" font-size="36pt" fill="#607d8b" font-weight="bold" transform="matrix(0.707 0.409 -0.707 0.409 0 0)" xml:space="preserve"><tspan x="8" dy="0">Subnet B</tspan></text><text font-family="Open Sans" y="49.04" font-size="36pt" fill="#607d8b" font-weight="bold" transform="matrix(0.707 0.409 -0.707 0.409 0 0)" xml:space="preserve"><tspan x="8" dy="0">Subnet B</tspan></text></svg></g></g><g opacity="1"><g id="8766aef9-9812-4cea-8a73-47638381ca73" transform="translate(0 0)"><svg x="-384" y="352" overflow="visible"><text stroke="#ffffff" stroke-width="4" font-family="Open Sans" y="36.5" font-size="25pt" fill="#000000" font-weight="bold" transform="matrix(0.707 0.409 -0.707 0.409 0 0)" xml:space="preserve"><tspan x="8" dy="0">ECS Cluster</tspan></text><text font-family="Open Sans" y="36.5" font-size="25pt" fill="#000000" font-weight="bold" transform="matrix(0.707 0.409 -0.707 0.409 0 0)" xml:space="preserve"><tspan x="8" dy="0">ECS Cluster</tspan></text></svg></g></g><g opacity="1"><g id="99efc08e-6c6a-4792-a6f9-bceb1635dafb" transform="translate(0 0)"><svg x="-160" y="204" overflow="visible"><text stroke="#ffffff" stroke-width="4" font-family="Open Sans" y="36.5" font-size="25pt" fill="#000000" font-weight="bold" transform="matrix(0.707 0.409 -0.707 0.409 0 0)" xml:space="preserve"><tspan x="8" dy="0">RDS</tspan></text><text font-family="Open Sans" y="36.5" font-size="25pt" fill="#000000" font-weight="bold" transform="matrix(0.707 0.409 -0.707 0.409 0 0)" xml:space="preserve"><tspan x="8" dy="0">RDS</tspan></text></svg></g></g></g><g pointer-events="auto"><g></g><g></g><g></g><g></g><g></g><g></g><g></g><g></g><g></g><g></g></g></g></svg>