<svg version="1.1" xmlns="http://www.w3.org/2000/svg" viewBox="0 0 1247.832692540077 1114.0143069110845" width="800" height="500">
  <!-- svg-source:excalidraw -->

  <defs>
    <style>
      @font-face {
        font-family: "Virgil";
        src: url("https://excalidraw.com/Virgil.woff2");
      }
      @font-face {
        font-family: "Cascadia";
        src: url("https://excalidraw.com/Cascadia.woff2");
      }
    </style>
  </defs>
  <g stroke-linecap="round" transform="translate(426.47786458333326 431.6232772172908) rotate(0 137.162109375 125.86185599273105)"><path d="M66.02 0.02 L222.5 -3.07 L244.32 5.23 L263.45 17.32 L267.93 36.93 L274.86 58.53 L272.9 198.87 L265.42 223.62 L251.5 239.54 L235.51 250.91 L219.95 254.09 L55.3 252.42 L31.84 244 L15.8 235.1 L3.37 218.25 L-0.46 197.61 L-1.07 61.54 L-0.64 42.14 L9.74 20.72 L27.58 7.15 L41.5 2 L64.56 -2.04" stroke="none" stroke-width="0" fill="#fab005"></path><path d="M62.93 0 M62.93 0 C113.55 5.76, 159.27 -1.69, 211.39 0 M62.93 0 C94.07 0.66, 125.14 2.73, 211.39 0 M211.39 0 C254.63 2.36, 272.9 21.71, 274.32 62.93 M211.39 0 C250.06 4.12, 271.68 17.86, 274.32 62.93 M274.32 62.93 C274.33 102.3, 275.53 142.59, 274.32 188.79 M274.32 62.93 C276.75 88.55, 274.67 114.19, 274.32 188.79 M274.32 188.79 C274.69 234.24, 253.73 254.27, 211.39 251.72 M274.32 188.79 C272.23 233.94, 255.49 252.36, 211.39 251.72 M211.39 251.72 C171.04 253.55, 138.5 253.25, 62.93 251.72 M211.39 251.72 C181.58 251.28, 147.19 251.04, 62.93 251.72 M62.93 251.72 C23.33 248.17, -2.2 231.14, 0 188.79 M62.93 251.72 C20.58 253.1, 3.67 227.84, 0 188.79 M0 188.79 C-4.2 147.26, -2.4 104.32, 0 62.93 M0 188.79 C-2.26 158.51, 0.7 131.16, 0 62.93 M0 62.93 C-2.99 18.27, 21.27 -3.01, 62.93 0 M0 62.93 C0 19.81, 19.03 -4.17, 62.93 0" stroke="#495057" stroke-width="2" fill="none"></path></g><g transform="translate(431.47786458333326 536.9851332100219) rotate(0 132.162109375 20.5)"><text x="132.162109375" y="33" font-family="Helvetica, Segoe UI Emoji" font-size="36px" fill="#495057" text-anchor="middle" style="white-space: pre;" direction="ltr">Cloudfront</text></g><g stroke-linecap="round" transform="translate(910.9049479166665 418.83929987668853) rotate(0 163.46387231170525 138.64583333333337)"><path d="M66.51 -2.56 L267.77 1.33 L290.91 7.37 L306.01 18.92 L322.21 41.85 L325.25 68.01 L323.32 216.73 L326.08 238.68 L312.14 258.14 L290.71 274.83 L258.15 275.32 L58.85 278.44 L35.85 273.73 L18.86 260.43 L0.85 236.68 L-2.64 219.92 L3.44 67.31 L5.4 48.12 L9.72 19.74 L27.47 9.41 L46.96 5.63 L66.8 1.38" stroke="none" stroke-width="0" fill="#228be6"></path><path d="M69.32 0 M69.32 0 C136.95 1.64, 203.18 0.08, 257.6 0 M69.32 0 C131.9 4.17, 197.42 1.09, 257.6 0 M257.6 0 C301.12 0.29, 323.92 23.11, 326.93 69.32 M257.6 0 C302.66 -1.95, 322.75 21.19, 326.93 69.32 M326.93 69.32 C324.71 98.58, 328.3 138.09, 326.93 207.97 M326.93 69.32 C326.17 115.34, 323.01 161.83, 326.93 207.97 M326.93 207.97 C329.58 250.8, 301.69 275.98, 257.6 277.29 M326.93 207.97 C323.86 252.63, 300.18 274.45, 257.6 277.29 M257.6 277.29 C204.21 272.53, 145.16 278.51, 69.32 277.29 M257.6 277.29 C204.9 276.25, 151.05 274.09, 69.32 277.29 M69.32 277.29 C25.52 279.42, 0.12 257.7, 0 207.97 M69.32 277.29 C26.83 274.69, 2.92 258.16, 0 207.97 M0 207.97 C3.41 172.12, 0.32 142.41, 0 69.32 M0 207.97 C1.03 161.95, 0.49 117, 0 69.32 M0 69.32 C0.57 25.1, 20.22 -2.12, 69.32 0 M0 69.32 C2.57 25.89, 25.33 -0.38, 69.32 0" stroke="#495057" stroke-width="2" fill="none"></path></g><g stroke-linecap="round" transform="translate(972.873026080837 523.6140792642926) rotate(0 104.78117800343057 65.86975186239589)"><path d="M8.11 8.38 C8.11 8.38, 8.11 8.38, 8.11 8.38 M8.11 8.38 C8.11 8.38, 8.11 8.38, 8.11 8.38 M3.26 20.06 C8.95 13.51, 14.63 6.97, 19 1.94 M3.26 20.06 C9.03 13.42, 14.8 6.78, 19 1.94 M2.34 27.21 C9.17 19.35, 16 11.49, 25.3 0.79 M2.34 27.21 C11.18 17.04, 20.02 6.87, 25.3 0.79 M1.42 34.36 C10.64 23.75, 19.86 13.15, 30.94 0.4 M1.42 34.36 C9.33 25.27, 17.23 16.18, 30.94 0.4 M1.82 40 C10.66 29.84, 19.5 19.67, 35.28 1.51 M1.82 40 C11.8 28.52, 21.77 17.04, 35.28 1.51 M1.55 46.4 C16.23 29.52, 30.91 12.63, 40.26 1.87 M1.55 46.4 C11.79 34.62, 22.03 22.84, 40.26 1.87 M1.95 52.05 C17.64 34, 33.32 15.96, 45.91 1.48 M1.95 52.05 C13.06 39.26, 24.17 26.48, 45.91 1.48 M1.69 58.44 C15.31 42.78, 28.92 27.11, 50.89 1.84 M1.69 58.44 C13.56 44.79, 25.43 31.13, 50.89 1.84 M1.43 64.84 C18.21 45.54, 34.99 26.23, 56.54 1.45 M1.43 64.84 C17.62 46.21, 33.81 27.58, 56.54 1.45 M1.82 70.48 C25.59 43.14, 49.35 15.81, 61.52 1.81 M1.82 70.48 C22.96 46.17, 44.1 21.85, 61.52 1.81 M1.56 76.88 C15.47 60.88, 29.38 44.88, 66.51 2.17 M1.56 76.88 C17.06 59.06, 32.55 41.23, 66.51 2.17 M1.95 82.52 C17 65.22, 32.04 47.92, 72.15 1.77 M1.95 82.52 C18.18 63.86, 34.4 45.2, 72.15 1.77 M1.69 88.92 C29.69 56.72, 57.69 24.51, 77.14 2.13 M1.69 88.92 C22.52 64.97, 43.34 41.01, 77.14 2.13 M2.09 94.57 C24.25 69.07, 46.41 43.58, 82.78 1.74 M2.09 94.57 C32.13 60.01, 62.16 25.46, 82.78 1.74 M1.83 100.96 C22.33 77.38, 42.83 53.79, 87.77 2.1 M1.83 100.96 C33.37 64.68, 64.91 28.4, 87.77 2.1 M1.56 107.36 C20.53 85.54, 39.5 63.72, 93.41 1.7 M1.56 107.36 C33.65 70.45, 65.74 33.53, 93.41 1.7 M2.62 112.25 C27.34 83.81, 52.06 55.37, 98.4 2.06 M2.62 112.25 C26.02 85.33, 49.42 58.41, 98.4 2.06 M4.98 115.63 C36.23 79.68, 67.48 43.73, 104.04 1.67 M4.98 115.63 C25.4 92.13, 45.82 68.64, 104.04 1.67 M6.03 120.52 C31.7 90.98, 57.37 61.45, 109.03 2.03 M6.03 120.52 C27.93 95.33, 49.82 70.14, 109.03 2.03 M8.39 123.9 C49.32 76.81, 90.25 29.73, 114.67 1.63 M8.39 123.9 C35.83 92.33, 63.27 60.76, 114.67 1.63 M11.41 126.52 C34.11 100.41, 56.81 74.29, 119.66 1.99 M11.41 126.52 C49.12 83.14, 86.83 39.76, 119.66 1.99 M15.09 128.39 C45.64 93.24, 76.19 58.1, 125.3 1.6 M15.09 128.39 C47.37 91.25, 79.66 54.11, 125.3 1.6 M18.76 130.26 C53.93 89.8, 89.1 49.35, 130.29 1.96 M18.76 130.26 C52.22 91.77, 85.68 53.28, 130.29 1.96 M23.09 131.37 C60.52 88.32, 97.95 45.26, 135.93 1.56 M23.09 131.37 C64.81 83.38, 106.52 35.4, 135.93 1.56 M27.42 132.49 C63.75 90.7, 100.07 48.92, 140.92 1.92 M27.42 132.49 C60.09 94.91, 92.75 57.34, 140.92 1.92 M33.06 132.09 C74.67 84.24, 116.27 36.38, 146.56 1.53 M33.06 132.09 C58 103.41, 82.93 74.73, 146.56 1.53 M38.71 131.7 C78.87 85.5, 119.04 39.29, 151.55 1.89 M38.71 131.7 C73 92.25, 107.28 52.81, 151.55 1.89 M43.7 132.06 C75.24 95.78, 106.78 59.49, 157.19 1.49 M43.7 132.06 C71.61 99.95, 99.52 67.84, 157.19 1.49 M49.34 131.66 C86.94 88.41, 124.54 45.15, 162.18 1.85 M49.34 131.66 C84.57 91.14, 119.8 50.61, 162.18 1.85 M54.33 132.02 C81.57 100.68, 108.82 69.34, 167.82 1.46 M54.33 132.02 C91.04 89.79, 127.75 47.56, 167.82 1.46 M59.97 131.63 C98.36 87.47, 136.75 43.3, 172.81 1.82 M59.97 131.63 C88.04 99.34, 116.11 67.05, 172.81 1.82 M64.96 131.99 C99.62 92.12, 134.28 52.24, 178.45 1.43 M64.96 131.99 C110.25 79.88, 155.54 27.78, 178.45 1.43 M70.6 131.6 C98.38 99.63, 126.17 67.67, 184.75 0.28 M70.6 131.6 C95.85 102.54, 121.11 73.49, 184.75 0.28 M75.59 131.96 C98.79 105.26, 121.99 78.57, 189.08 1.39 M75.59 131.96 C108.67 93.9, 141.75 55.85, 189.08 1.39 M80.57 132.32 C112.81 95.23, 145.04 58.15, 192.76 3.26 M80.57 132.32 C115.27 92.4, 149.97 52.49, 192.76 3.26 M86.22 131.92 C124.56 87.81, 162.9 43.71, 197.09 4.38 M86.22 131.92 C118.5 94.78, 150.79 57.64, 197.09 4.38 M91.2 132.28 C123.3 95.36, 155.4 58.43, 200.11 7 M91.2 132.28 C130.89 86.62, 170.58 40.97, 200.11 7 M96.85 131.89 C119.83 105.44, 142.82 79, 203.13 9.62 M96.85 131.89 C135.19 87.78, 173.53 43.68, 203.13 9.62 M101.83 132.25 C129.45 100.48, 157.06 68.71, 205.49 13 M101.83 132.25 C123.61 107.2, 145.38 82.15, 205.49 13 M107.48 131.85 C145.45 88.17, 183.42 44.49, 207.2 17.14 M107.48 131.85 C140.82 93.49, 174.17 55.13, 207.2 17.14 M112.46 132.21 C149.49 89.62, 186.52 47.02, 209.56 20.52 M112.46 132.21 C135.91 105.24, 159.35 78.27, 209.56 20.52 M118.11 131.82 C144.03 101.99, 169.96 72.16, 209.95 26.16 M118.11 131.82 C147.35 98.17, 176.6 64.53, 209.95 26.16 M123.09 132.18 C157.7 92.37, 192.3 52.56, 210.35 31.8 M123.09 132.18 C142.79 109.52, 162.49 86.86, 210.35 31.8 M128.74 131.78 C148.42 109.14, 168.1 86.49, 210.09 38.2 M128.74 131.78 C152.4 104.57, 176.06 77.35, 210.09 38.2 M133.72 132.14 C152.71 110.3, 171.7 88.46, 210.48 43.84 M133.72 132.14 C156.9 105.49, 180.07 78.83, 210.48 43.84 M139.37 131.75 C157.72 110.63, 176.08 89.52, 210.22 50.24 M139.37 131.75 C160.74 107.17, 182.11 82.58, 210.22 50.24 M144.35 132.11 C160.56 113.47, 176.76 94.83, 209.96 56.64 M144.35 132.11 C169.34 103.37, 194.33 74.62, 209.96 56.64 M150 131.71 C162.73 117.07, 175.46 102.42, 210.35 62.28 M150 131.71 C166.45 112.79, 182.9 93.86, 210.35 62.28 M154.98 132.07 C170.8 113.88, 186.61 95.69, 210.09 68.68 M154.98 132.07 C174.02 110.18, 193.05 88.28, 210.09 68.68 M160.63 131.68 C173.25 117.15, 185.88 102.63, 210.49 74.32 M160.63 131.68 C180.44 108.88, 200.26 86.09, 210.49 74.32 M165.61 132.04 C176.18 119.89, 186.74 107.73, 210.23 80.72 M165.61 132.04 C176.77 119.21, 187.93 106.37, 210.23 80.72 M171.26 131.65 C179.9 121.71, 188.54 111.77, 210.62 86.36 M171.26 131.65 C184.71 116.17, 198.16 100.7, 210.62 86.36 M176.24 132.01 C187.99 118.5, 199.73 104.99, 210.36 92.76 M176.24 132.01 C187.21 119.39, 198.18 106.77, 210.36 92.76 M179.26 134.63 C186.09 126.77, 192.92 118.92, 210.1 99.16 M179.26 134.63 C186.75 126.01, 194.24 117.39, 210.1 99.16 M186.22 132.73 C191.77 126.34, 197.32 119.95, 209.84 105.56 M186.22 132.73 C194.67 123, 203.13 113.27, 209.84 105.56 M192.52 131.58 C196.44 127.06, 200.36 122.55, 208.26 113.46 M192.52 131.58 C197.4 125.95, 202.29 120.33, 208.26 113.46 M8.05 123.35 C8.05 123.35, 8.05 123.35, 8.05 123.35 M8.05 123.35 C8.05 123.35, 8.05 123.35, 8.05 123.35 M19.73 128.2 C13.3 122.61, 6.87 117.02, 2.37 113.11 M19.73 128.2 C15.82 124.8, 11.91 121.4, 2.37 113.11 M26.88 129.12 C17.35 120.83, 7.81 112.54, 0.47 106.16 M26.88 129.12 C16.87 120.41, 6.85 111.7, 0.47 106.16 M34.04 130.04 C23.03 120.47, 12.02 110.9, 0.83 101.17 M34.04 130.04 C22.72 120.2, 11.41 110.36, 0.83 101.17 M40.44 130.3 C26.89 118.53, 13.35 106.76, 0.44 95.53 M40.44 130.3 C31.63 122.65, 22.83 114.99, 0.44 95.53 M46.08 129.9 C29.93 115.86, 13.78 101.83, 0.8 90.54 M46.08 129.9 C33.32 118.82, 20.57 107.73, 0.8 90.54 M52.48 130.16 C32.48 112.79, 12.49 95.41, 0.4 84.9 M52.48 130.16 C34.86 114.85, 17.24 99.53, 0.4 84.9 M58.87 130.43 C38.64 112.83, 18.4 95.24, 0.76 79.91 M58.87 130.43 C38.83 113.01, 18.79 95.59, 0.76 79.91 M64.52 130.03 C50.8 118.11, 37.09 106.19, 0.37 74.27 M64.52 130.03 C39.39 108.19, 14.26 86.34, 0.37 74.27 M70.91 130.29 C50.78 112.79, 30.65 95.29, 0.73 69.28 M70.91 130.29 C49.93 112.05, 28.94 93.8, 0.73 69.28 M76.56 129.9 C51.96 108.52, 27.37 87.14, 0.33 63.64 M76.56 129.9 C60.55 115.99, 44.55 102.07, 0.33 63.64 M82.96 130.16 C63.95 113.64, 44.94 97.11, 0.69 58.65 M82.96 130.16 C51.3 102.64, 19.65 75.13, 0.69 58.65 M89.35 130.42 C55.22 100.75, 21.09 71.08, 0.3 53.01 M89.35 130.42 C54.22 99.88, 19.09 69.34, 0.3 53.01 M95 130.03 C64.79 103.77, 34.57 77.5, -0.1 47.36 M95 130.03 C65.08 104.02, 35.17 78.02, -0.1 47.36 M101.39 130.29 C76.47 108.62, 51.54 86.95, 0.26 42.38 M101.39 130.29 C69.16 102.27, 36.93 74.25, 0.26 42.38 M107.79 130.55 C68.77 96.63, 29.74 62.7, -0.13 36.73 M107.79 130.55 C78.36 104.97, 48.93 79.38, -0.13 36.73 M113.44 130.16 C75.07 96.8, 36.7 63.45, 0.98 32.4 M113.44 130.16 C76.56 98.1, 39.68 66.04, 0.98 32.4 M119.83 130.42 C89.52 104.07, 59.22 77.72, 1.34 27.42 M119.83 130.42 C82.46 97.93, 45.09 65.45, 1.34 27.42 M125.48 130.02 C91.71 100.67, 57.93 71.31, 2.46 23.08 M125.48 130.02 C83.74 93.74, 42.01 57.47, 2.46 23.08 M131.87 130.28 C83.94 88.61, 36.01 46.95, 2.82 18.1 M131.87 130.28 C84.03 88.7, 36.19 47.11, 2.82 18.1 M138.27 130.54 C107.33 103.64, 76.38 76.74, 4.69 14.42 M138.27 130.54 C105.99 102.48, 73.7 74.42, 4.69 14.42 M143.91 130.15 C94.77 87.43, 45.63 44.71, 6.56 10.75 M143.91 130.15 C111.14 101.66, 78.37 73.17, 6.56 10.75 M150.31 130.41 C97.26 84.29, 44.2 38.17, 9.18 7.73 M150.31 130.41 C108.52 94.08, 66.73 57.76, 9.18 7.73 M155.96 130.02 C106.62 87.13, 57.29 44.25, 11.81 4.71 M155.96 130.02 C99.61 81.04, 43.26 32.05, 11.81 4.71 M162.35 130.28 C125.74 98.45, 89.12 66.62, 15.18 2.35 M162.35 130.28 C113 87.38, 63.66 44.48, 15.18 2.35 M168.75 130.54 C119.39 87.64, 70.04 44.73, 19.32 0.64 M168.75 130.54 C113.27 82.31, 57.79 34.08, 19.32 0.64 M174.39 130.15 C119.12 82.1, 63.85 34.05, 24.96 0.25 M174.39 130.15 C120.01 82.87, 65.63 35.6, 24.96 0.25 M179.28 129.09 C148.71 102.52, 118.14 75.94, 30.6 -0.15 M179.28 129.09 C120.5 78, 61.72 26.9, 30.6 -0.15 M185.68 129.36 C149.94 98.29, 114.2 67.22, 34.74 -1.86 M185.68 129.36 C131.57 82.32, 77.46 35.28, 34.74 -1.86 M191.32 128.96 C141.51 85.66, 91.71 42.36, 40.38 -2.25 M191.32 128.96 C138.4 82.96, 85.49 36.96, 40.38 -2.25 M195.46 127.25 C147.07 85.19, 98.69 43.13, 46.78 -1.99 M195.46 127.25 C155.71 92.7, 115.97 58.15, 46.78 -1.99 M198.84 124.89 C148.83 81.43, 98.83 37.96, 53.18 -1.73 M198.84 124.89 C141.12 74.72, 83.4 24.54, 53.18 -1.73 M202.21 122.53 C160.67 86.41, 119.12 50.29, 58.82 -2.12 M202.21 122.53 C171.99 96.26, 141.77 69.99, 58.82 -2.12 M204.84 119.51 C154.09 75.39, 103.33 31.27, 65.22 -1.86 M204.84 119.51 C154.07 75.38, 103.3 31.25, 65.22 -1.86 M207.46 116.49 C158.04 73.53, 108.62 30.57, 70.86 -2.25 M207.46 116.49 C169.09 83.14, 130.72 49.78, 70.86 -2.25 M208.58 112.16 C157.78 68, 106.99 23.85, 77.26 -1.99 M208.58 112.16 C161.87 71.56, 115.16 30.96, 77.26 -1.99 M209.69 107.83 C165.35 69.28, 121.01 30.74, 83.66 -1.73 M209.69 107.83 C166.62 70.39, 123.54 32.94, 83.66 -1.73 M211.56 104.15 C176.42 73.6, 141.27 43.05, 89.3 -2.13 M211.56 104.15 C169.08 67.23, 126.6 30.3, 89.3 -2.13 M210.41 97.86 C181.95 73.12, 153.49 48.37, 95.7 -1.87 M210.41 97.86 C184.11 74.99, 157.82 52.13, 95.7 -1.87 M210.02 92.21 C186.34 71.63, 162.66 51.05, 101.34 -2.26 M210.02 92.21 C168.1 55.77, 126.18 19.33, 101.34 -2.26 M210.38 87.23 C188.09 67.85, 165.81 48.48, 107.74 -2 M210.38 87.23 C174.34 55.9, 138.3 24.57, 107.74 -2 M209.98 81.58 C190 64.21, 170.01 46.83, 114.14 -1.74 M209.98 81.58 C172.68 49.15, 135.37 16.73, 114.14 -1.74 M210.34 76.6 C191.92 60.58, 173.49 44.56, 119.78 -2.13 M210.34 76.6 C184.35 54, 158.36 31.41, 119.78 -2.13 M209.95 70.95 C179.11 44.15, 148.27 17.34, 126.18 -1.87 M209.95 70.95 C180.76 45.57, 151.56 20.2, 126.18 -1.87 M210.31 65.97 C184.42 43.46, 158.53 20.96, 131.82 -2.26 M210.31 65.97 C179.82 39.46, 149.34 12.96, 131.82 -2.26 M209.92 60.32 C189.6 42.66, 169.28 25, 138.22 -2 M209.92 60.32 C186.54 40, 163.17 19.68, 138.22 -2 M210.28 55.34 C190.77 38.38, 171.27 21.43, 144.62 -1.74 M210.28 55.34 C185.41 33.72, 160.54 12.1, 144.62 -1.74 M209.88 49.69 C196.81 38.33, 183.75 26.98, 150.26 -2.14 M209.88 49.69 C194.61 36.42, 179.34 23.14, 150.26 -2.14 M210.24 44.71 C189.66 26.82, 169.08 8.93, 156.66 -1.87 M210.24 44.71 C191.31 28.25, 172.38 11.79, 156.66 -1.87 M209.85 39.06 C194.7 25.9, 179.56 12.73, 162.3 -2.27 M209.85 39.06 C193.44 24.8, 177.04 10.55, 162.3 -2.27 M210.21 34.08 C199.91 25.13, 189.62 16.18, 168.7 -2.01 M210.21 34.08 C194.47 20.39, 178.73 6.71, 168.7 -2.01 M209.81 28.43 C203.08 22.58, 196.35 16.73, 176.6 -0.43 M209.81 28.43 C200.82 20.62, 191.83 12.8, 176.6 -0.43 M210.17 23.45 C201.61 16.01, 193.06 8.57, 183.76 0.48 M210.17 23.45 C202.37 16.66, 194.57 9.88, 183.76 0.48 M209.02 17.15 C202.59 11.55, 196.15 5.96, 191.66 2.06 M209.02 17.15 C202.37 11.36, 195.72 5.58, 191.66 2.06" stroke="#ced4da" stroke-width="0.5" fill="none"></path><path d="M32.93 0 M32.93 0 C65.32 0, 97.71 0, 176.63 0 M32.93 0 C77.87 0, 122.81 0, 176.63 0 M176.63 0 C198.58 0, 209.56 10.98, 209.56 32.93 M176.63 0 C198.58 0, 209.56 10.98, 209.56 32.93 M209.56 32.93 C209.56 53.04, 209.56 73.14, 209.56 98.8 M209.56 32.93 C209.56 47.24, 209.56 61.55, 209.56 98.8 M209.56 98.8 C209.56 120.76, 198.58 131.74, 176.63 131.74 M209.56 98.8 C209.56 120.76, 198.58 131.74, 176.63 131.74 M176.63 131.74 C132.74 131.74, 88.85 131.74, 32.93 131.74 M176.63 131.74 C119.4 131.74, 62.17 131.74, 32.93 131.74 M32.93 131.74 C10.98 131.74, 0 120.76, 0 98.8 M32.93 131.74 C10.98 131.74, 0 120.76, 0 98.8 M0 98.8 C0 76.05, 0 53.3, 0 32.93 M0 98.8 C0 80.68, 0 62.56, 0 32.93 M0 32.93 C0 10.98, 10.98 0, 32.93 0 M0 32.93 C0 10.98, 10.98 0, 32.93 0" stroke="#fff" stroke-width="1" fill="none"></path></g><g transform="translate(977.873026080837 541.4838311266885) rotate(0 99.78117800343057 48)"><text x="99.78117800343057" y="26" font-family="Helvetica, Segoe UI Emoji" font-size="28px" fill="#fff" text-anchor="middle" style="white-space: pre;" direction="ltr"> - /index.html</text><text x="99.78117800343057" y="58" font-family="Helvetica, Segoe UI Emoji" font-size="28px" fill="#fff" text-anchor="middle" style="white-space: pre;" direction="ltr">- /error.html</text><text x="99.78117800343057" y="90" font-family="Helvetica, Segoe UI Emoji" font-size="28px" fill="#fff" text-anchor="middle" style="white-space: pre;" direction="ltr"> - /versions/*</text></g><g transform="translate(993.6439906017515 440.23383112668853) rotate(0 82.5 20.5)"><text x="82.5" y="33" font-family="Helvetica, Segoe UI Emoji" font-size="36px" fill="#fff" text-anchor="middle" style="white-space: pre;" direction="ltr">S3 Bucket</text></g><g stroke-linecap="round" transform="translate(10 451.60948216835516) rotate(0 106 105.87565104166669)"><path d="M212 105.88 C212 109.13, 211.85 112.4, 211.55 115.64 C211.25 118.89, 210.79 122.13, 210.2 125.33 C209.6 128.53, 208.85 131.72, 207.95 134.85 C207.06 137.98, 206.02 141.09, 204.84 144.12 C203.66 147.16, 202.34 150.15, 200.89 153.07 C199.43 155.98, 197.84 158.84, 196.12 161.61 C194.41 164.38, 192.55 167.08, 190.59 169.68 C188.63 172.28, 186.53 174.8, 184.33 177.2 C182.14 179.61, 179.82 181.92, 177.41 184.12 C175 186.31, 172.48 188.4, 169.88 190.37 C167.28 192.33, 164.57 194.18, 161.8 195.89 C159.03 197.61, 156.17 199.2, 153.25 200.65 C150.33 202.1, 147.33 203.43, 144.29 204.6 C141.25 205.78, 138.14 206.82, 135.01 207.71 C131.87 208.6, 128.68 209.35, 125.48 209.95 C122.27 210.55, 119.03 211, 115.78 211.3 C112.53 211.6, 109.26 211.75, 106 211.75 C102.74 211.75, 99.47 211.6, 96.22 211.3 C92.97 211, 89.73 210.55, 86.52 209.95 C83.32 209.35, 80.13 208.6, 76.99 207.71 C73.86 206.82, 70.75 205.78, 67.71 204.6 C64.67 203.43, 61.67 202.1, 58.75 200.65 C55.83 199.2, 52.97 197.61, 50.2 195.89 C47.43 194.18, 44.72 192.33, 42.12 190.37 C39.52 188.4, 37 186.31, 34.59 184.12 C32.18 181.92, 29.86 179.61, 27.67 177.2 C25.47 174.8, 23.37 172.28, 21.41 169.68 C19.45 167.08, 17.59 164.38, 15.88 161.61 C14.16 158.84, 12.57 155.98, 11.11 153.07 C9.66 150.15, 8.34 147.16, 7.16 144.12 C5.98 141.09, 4.94 137.98, 4.05 134.85 C3.15 131.72, 2.4 128.53, 1.8 125.33 C1.21 122.13, 0.75 118.89, 0.45 115.64 C0.15 112.4, 0 109.13, 0 105.88 C0 102.62, 0.15 99.35, 0.45 96.11 C0.75 92.86, 1.21 89.62, 1.8 86.42 C2.4 83.22, 3.15 80.03, 4.05 76.9 C4.94 73.77, 5.98 70.67, 7.16 67.63 C8.34 64.59, 9.66 61.6, 11.11 58.68 C12.57 55.77, 14.16 52.91, 15.88 50.14 C17.59 47.37, 19.45 44.67, 21.41 42.07 C23.37 39.47, 25.47 36.95, 27.67 34.55 C29.86 32.14, 32.18 29.83, 34.59 27.63 C37 25.44, 39.52 23.35, 42.12 21.39 C44.72 19.42, 47.43 17.57, 50.2 15.86 C52.97 14.14, 55.83 12.55, 58.75 11.1 C61.67 9.65, 64.67 8.33, 67.71 7.15 C70.75 5.97, 73.86 4.93, 76.99 4.04 C80.13 3.15, 83.32 2.4, 86.52 1.8 C89.73 1.2, 92.97 0.75, 96.22 0.45 C99.47 0.15, 102.74 0, 106 0 C109.26 0, 112.53 0.15, 115.78 0.45 C119.03 0.75, 122.27 1.2, 125.48 1.8 C128.68 2.4, 131.87 3.15, 135.01 4.04 C138.14 4.93, 141.25 5.97, 144.29 7.15 C147.33 8.33, 150.33 9.65, 153.25 11.1 C156.17 12.55, 159.03 14.14, 161.8 15.86 C164.57 17.57, 167.28 19.42, 169.88 21.39 C172.48 23.35, 175 25.44, 177.41 27.63 C179.82 29.83, 182.14 32.14, 184.33 34.55 C186.53 36.95, 188.63 39.47, 190.59 42.07 C192.55 44.67, 194.41 47.37, 196.12 50.14 C197.84 52.91, 199.43 55.77, 200.89 58.68 C202.34 61.6, 203.66 64.59, 204.84 67.63 C206.02 70.67, 207.06 73.77, 207.95 76.9 C208.85 80.03, 209.6 83.22, 210.2 86.42 C210.79 89.62, 211.25 92.86, 211.55 96.11 C211.85 99.35, 211.92 104.25, 212 105.88 C212.08 107.5, 212.08 104.25, 212 105.88" stroke="none" stroke-width="0" fill="#ced4da"></path><path d="M212 105.88 C212 109.13, 211.85 112.4, 211.55 115.64 C211.25 118.89, 210.79 122.13, 210.2 125.33 C209.6 128.53, 208.85 131.72, 207.95 134.85 C207.06 137.98, 206.02 141.09, 204.84 144.12 C203.66 147.16, 202.34 150.15, 200.89 153.07 C199.43 155.98, 197.84 158.84, 196.12 161.61 C194.41 164.38, 192.55 167.08, 190.59 169.68 C188.63 172.28, 186.53 174.8, 184.33 177.2 C182.14 179.61, 179.82 181.92, 177.41 184.12 C175 186.31, 172.48 188.4, 169.88 190.37 C167.28 192.33, 164.57 194.18, 161.8 195.89 C159.03 197.61, 156.17 199.2, 153.25 200.65 C150.33 202.1, 147.33 203.43, 144.29 204.6 C141.25 205.78, 138.14 206.82, 135.01 207.71 C131.87 208.6, 128.68 209.35, 125.48 209.95 C122.27 210.55, 119.03 211, 115.78 211.3 C112.53 211.6, 109.26 211.75, 106 211.75 C102.74 211.75, 99.47 211.6, 96.22 211.3 C92.97 211, 89.73 210.55, 86.52 209.95 C83.32 209.35, 80.13 208.6, 76.99 207.71 C73.86 206.82, 70.75 205.78, 67.71 204.6 C64.67 203.43, 61.67 202.1, 58.75 200.65 C55.83 199.2, 52.97 197.61, 50.2 195.89 C47.43 194.18, 44.72 192.33, 42.12 190.37 C39.52 188.4, 37 186.31, 34.59 184.12 C32.18 181.92, 29.86 179.61, 27.67 177.2 C25.47 174.8, 23.37 172.28, 21.41 169.68 C19.45 167.08, 17.59 164.38, 15.88 161.61 C14.16 158.84, 12.57 155.98, 11.11 153.07 C9.66 150.15, 8.34 147.16, 7.16 144.12 C5.98 141.09, 4.94 137.98, 4.05 134.85 C3.15 131.72, 2.4 128.53, 1.8 125.33 C1.21 122.13, 0.75 118.89, 0.45 115.64 C0.15 112.4, 0 109.13, 0 105.88 C0 102.62, 0.15 99.35, 0.45 96.11 C0.75 92.86, 1.21 89.62, 1.8 86.42 C2.4 83.22, 3.15 80.03, 4.05 76.9 C4.94 73.77, 5.98 70.67, 7.16 67.63 C8.34 64.59, 9.66 61.6, 11.11 58.68 C12.57 55.77, 14.16 52.91, 15.88 50.14 C17.59 47.37, 19.45 44.67, 21.41 42.07 C23.37 39.47, 25.47 36.95, 27.67 34.55 C29.86 32.14, 32.18 29.83, 34.59 27.63 C37 25.44, 39.52 23.35, 42.12 21.39 C44.72 19.42, 47.43 17.57, 50.2 15.86 C52.97 14.14, 55.83 12.55, 58.75 11.1 C61.67 9.65, 64.67 8.33, 67.71 7.15 C70.75 5.97, 73.86 4.93, 76.99 4.04 C80.13 3.15, 83.32 2.4, 86.52 1.8 C89.73 1.2, 92.97 0.75, 96.22 0.45 C99.47 0.15, 102.74 0, 106 0 C109.26 0, 112.53 0.15, 115.78 0.45 C119.03 0.75, 122.27 1.2, 125.48 1.8 C128.68 2.4, 131.87 3.15, 135.01 4.04 C138.14 4.93, 141.25 5.97, 144.29 7.15 C147.33 8.33, 150.33 9.65, 153.25 11.1 C156.17 12.55, 159.03 14.14, 161.8 15.86 C164.57 17.57, 167.28 19.42, 169.88 21.39 C172.48 23.35, 175 25.44, 177.41 27.63 C179.82 29.83, 182.14 32.14, 184.33 34.55 C186.53 36.95, 188.63 39.47, 190.59 42.07 C192.55 44.67, 194.41 47.37, 196.12 50.14 C197.84 52.91, 199.43 55.77, 200.89 58.68 C202.34 61.6, 203.66 64.59, 204.84 67.63 C206.02 70.67, 207.06 73.77, 207.95 76.9 C208.85 80.03, 209.6 83.22, 210.2 86.42 C210.79 89.62, 211.25 92.86, 211.55 96.11 C211.85 99.35, 211.92 104.25, 212 105.88 C212.08 107.5, 212.08 104.25, 212 105.88" stroke="#666" stroke-width="1" fill="none"></path></g><g transform="translate(15 536.9851332100219) rotate(0 101 20.5)"><text x="101" y="33" font-family="Helvetica, Segoe UI Emoji" font-size="36px" fill="#666" text-anchor="middle" style="white-space: pre;" direction="ltr">User</text></g><g stroke-linecap="round"><g transform="translate(233.9535029013876 554.8843100302877) rotate(0 87.29408188263946 1.1372949741349885)"><path d="M0 0 C29.1 0.38, 145.49 1.9, 174.59 2.27 M0 0 C29.1 0.38, 145.49 1.9, 174.59 2.27" stroke="#343a40" stroke-width="1" fill="none"></path></g><g transform="translate(233.9535029013876 554.8843100302877) rotate(0 87.29408188263946 1.1372949741349885)"><path d="M146.27 12.17 C156.51 8.59, 166.75 5.01, 174.59 2.27 M146.27 12.17 C156.49 8.6, 166.71 5.03, 174.59 2.27" stroke="#343a40" stroke-width="1" fill="none"></path></g><g transform="translate(233.9535029013876 554.8843100302877) rotate(0 87.29408188263946 1.1372949741349885)"><path d="M146.53 -8.35 C156.68 -4.51, 166.82 -0.67, 174.59 2.27 M146.53 -8.35 C156.66 -4.52, 166.78 -0.68, 174.59 2.27" stroke="#343a40" stroke-width="1" fill="none"></path></g></g><g stroke-linecap="round"><g transform="translate(721.7643229166665 547.9921714944193) rotate(0 86.689453125 -0.5924479166666572)"><path d="M0 0 C28.9 -0.2, 144.48 -0.99, 173.38 -1.18 M0 0 C28.9 -0.2, 144.48 -0.99, 173.38 -1.18" stroke="#343a40" stroke-width="1" fill="none"></path></g><g transform="translate(721.7643229166665 547.9921714944193) rotate(0 86.689453125 -0.5924479166666572)"><path d="M145.26 9.27 C153.02 6.38, 160.78 3.5, 173.38 -1.18 M145.26 9.27 C155.48 5.47, 165.7 1.67, 173.38 -1.18" stroke="#343a40" stroke-width="1" fill="none"></path></g><g transform="translate(721.7643229166665 547.9921714944193) rotate(0 86.689453125 -0.5924479166666572)"><path d="M145.12 -11.25 C152.92 -8.47, 160.72 -5.7, 173.38 -1.18 M145.12 -11.25 C155.39 -7.59, 165.66 -3.93, 173.38 -1.18" stroke="#343a40" stroke-width="1" fill="none"></path></g></g><g stroke-linecap="round" transform="translate(930.7978566867052 815.9999839944178) rotate(0 144.00716145833337 144.00716145833337)"><path d="M180.75 36.25 L268.6 125.79 L277.4 138.04 L279.08 144.94 L278.66 148.33 L275.31 155.51 L263.99 168.88 L168.88 263.99 L159.52 272.37 L151.82 277.4 L144.94 279.08 L141.54 278.66 L134.31 275.31 L120.79 263.99 L24.36 168.88 L15.86 159.52 L10.76 151.82 L9.06 144.94 L9.49 141.54 L12.89 134.31 L24.36 120.79 L115.14 29.88 L125.79 19.68 L134.31 12.89 L141.54 9.49 L144.94 9.06 L151.82 10.76 L163.94 19.68 L180.75 36.25" stroke="none" stroke-width="0" fill="#ced4da"></path><path d="M180.75 36.25 M180.75 36.25 C207.66 63.53, 234.56 90.8, 252.26 108.75 M180.75 36.25 C201.24 57.02, 221.72 77.79, 252.26 108.75 M252.26 108.75 C288.01 145, 288.01 145, 252.26 180.75 M252.26 108.75 C288.01 145, 288.01 145, 252.26 180.75 M252.26 180.75 C230.1 202.92, 207.94 225.08, 180.75 252.26 M252.26 180.75 C237.48 195.53, 222.71 210.31, 180.75 252.26 M180.75 252.26 C145 288.01, 145 288.01, 108.75 252.26 M180.75 252.26 C145 288.01, 145 288.01, 108.75 252.26 M108.75 252.26 C86.7 230.51, 64.65 208.76, 36.25 180.75 M108.75 252.26 C90.76 234.52, 72.77 216.77, 36.25 180.75 M36.25 180.75 C0 145, 0 145, 36.25 108.75 M36.25 180.75 C0 145, 0 145, 36.25 108.75 M36.25 108.75 C63.77 81.23, 91.3 53.7, 108.75 36.25 M36.25 108.75 C62.13 82.87, 88 57, 108.75 36.25 M108.75 36.25 C145 0, 145 0, 180.75 36.25 M108.75 36.25 C145 0, 145 0, 180.75 36.25" stroke="#666" stroke-width="1" fill="none"></path></g><g transform="translate(935.7978566867052 928.007145452751) rotate(0 139 32)"><text x="139" y="26" font-family="Helvetica, Segoe UI Emoji" font-size="28px" fill="#666" text-anchor="middle" style="white-space: pre;" direction="ltr">/versions/*</text><text x="139" y="58" font-family="Helvetica, Segoe UI Emoji" font-size="28px" fill="#666" text-anchor="middle" style="white-space: pre;" direction="ltr">clearing lifecycle</text></g><g stroke-linecap="round"><g transform="translate(1070.4687499999995 701.7291506610834) rotate(0 1.30859375 54.59960937499998)"><path d="M0 0 C0.44 18.2, 2.18 91, 2.62 109.2 M0 0 C0.44 18.2, 2.18 91, 2.62 109.2" stroke="#777" stroke-width="1" fill="none"></path></g></g><g stroke-linecap="round" transform="translate(410.1429087700385 10) rotate(0 148.57486979166674 148.42056491387595)"><path d="M186.04 37.25 L277.04 129.26 L286.15 141.85 L287.89 148.96 L287.46 152.46 L283.98 159.87 L272.27 173.69 L173.74 272.01 L164.04 280.67 L156.08 285.87 L148.97 287.6 L145.47 287.17 L138.03 283.7 L124.12 272.01 L25.03 173.69 L16.3 164.01 L11.06 156.06 L9.31 148.96 L9.75 145.47 L13.24 138.02 L25.03 124.12 L118.32 30.7 L129.26 20.23 L138.03 13.24 L145.47 9.75 L148.97 9.31 L156.08 11.06 L168.62 20.23 L186.04 37.25" stroke="none" stroke-width="0" fill="#ced4da"></path><path d="M186.04 37.25 M186.04 37.25 C204.55 55.87, 223.06 74.49, 260.11 111.75 M186.04 37.25 C204.07 55.39, 222.11 73.53, 260.11 111.75 M260.11 111.75 C297.15 149, 297.15 149, 260.11 185.96 M260.11 111.75 C297.15 149, 297.15 149, 260.11 185.96 M260.11 185.96 C238.14 207.89, 216.17 229.81, 186.04 259.88 M260.11 185.96 C232.05 213.96, 203.99 241.97, 186.04 259.88 M186.04 259.88 C149 296.84, 149 296.84, 111.75 259.88 M186.04 259.88 C149 296.84, 149 296.84, 111.75 259.88 M111.75 259.88 C82.13 230.5, 52.52 201.11, 37.25 185.96 M111.75 259.88 C85.68 234.02, 59.62 208.15, 37.25 185.96 M37.25 185.96 C0 149, 0 149, 37.25 111.75 M37.25 185.96 C0 149, 0 149, 37.25 111.75 M37.25 111.75 C58.83 90.17, 80.4 68.6, 111.75 37.25 M37.25 111.75 C56.21 92.79, 75.17 73.83, 111.75 37.25 M111.75 37.25 C149 0, 149 0, 186.04 37.25 M111.75 37.25 C149 0, 149 0, 186.04 37.25" stroke="#666" stroke-width="1" fill="none"></path></g><g transform="translate(415.1429087700385 126.42056491387598) rotate(0 143.5 32)"><text x="143.5" y="26" font-family="Helvetica, Segoe UI Emoji" font-size="28px" fill="#666" text-anchor="middle" style="white-space: pre;" direction="ltr">/error.html</text><text x="143.5" y="58" font-family="Helvetica, Segoe UI Emoji" font-size="28px" fill="#666" text-anchor="middle" style="white-space: pre;" direction="ltr">redirects for 4xx</text></g><g stroke-linecap="round"><g transform="translate(562.6302083333301 411.33201524441864) rotate(0 -0.693359375 -49.41731770833334)"><path d="M0 0 C-0.23 -16.47, -1.16 -82.36, -1.39 -98.83 M0 0 C-0.23 -16.47, -1.16 -82.36, -1.39 -98.83" stroke="#777" stroke-width="1" fill="none"></path></g></g></svg>
